PathFileType	4	(X/Y/Z)	/Users/itak/Documents/Research/Walk-IL/dataset/trc/00287_00010.trc
DataRate	CameraRate	NumFrames	NumMarkers	Units	OrigDataRate	OrigDataStartFrame	OrigNumFrames
100.000000	100.000000	4	54	mm	100.000000	0	683
Frame#	Time	RPSI			LPSI			L3			STRN			T10			C7			CLAV			RBAK			LBAK			LSHO			LUPA			LAEL			LAOL			LWTS			LWPS			LFRA			LHPS			LHTS			RSHO			RUPA			RAEL			RAOL			RWTS			RWPS			RFRA			RHTS			RHPS			RBHD			LFHD			RFHD			LBHD			LHIP			RHIP			RASI			LASI			LKNE			LTHI			LANK			LTIP			LTOE			LMT1			LMT5			LHEE			RKNE			RTHI			RANK			RTIP			RTOE			RMT1			RMT5			RHEE			RIFD			LIFD			*53			
		X1	Y1	Z1	X2	Y2	Z2	X3	Y3	Z3	X4	Y4	Z4	X5	Y5	Z5	X6	Y6	Z6	X7	Y7	Z7	X8	Y8	Z8	X9	Y9	Z9	X10	Y10	Z10	X11	Y11	Z11	X12	Y12	Z12	X13	Y13	Z13	X14	Y14	Z14	X15	Y15	Z15	X16	Y16	Z16	X17	Y17	Z17	X18	Y18	Z18	X19	Y19	Z19	X20	Y20	Z20	X21	Y21	Z21	X22	Y22	Z22	X23	Y23	Z23	X24	Y24	Z24	X25	Y25	Z25	X26	Y26	Z26	X27	Y27	Z27	X28	Y28	Z28	X29	Y29	Z29	X30	Y30	Z30	X31	Y31	Z31	X32	Y32	Z32	X33	Y33	Z33	X34	Y34	Z34	X35	Y35	Z35	X36	Y36	Z36	X37	Y37	Z37	X38	Y38	Z38	X39	Y39	Z39	X40	Y40	Z40	X41	Y41	Z41	X42	Y42	Z42	X43	Y43	Z43	X44	Y44	Z44	X45	Y45	Z45	X46	Y46	Z46	X47	Y47	Z47	X48	Y48	Z48	X49	Y49	Z49	X50	Y50	Z50	X51	Y51	Z51	X52	Y52	Z52	X53	Y53	Z53	X54	Y54	Z54	

1	0	304.4060974121094	1010.754943847656	1121.871337890625	284.843505859375	1000.661865234375	1294.8017578125	277.1480407714844	1073.568237304688	1210.781372070312	34.3511848449707	1257.436767578125	1189.380249023438	294.1344604492188	1184.92919921875	1216.57763671875	260.9107055664062	1431.043090820312	1231.230102539062	98.6304931640625	1357.138549804688	1201.52734375	314.0945129394531	1292.601684570312	1158.388305664062	260.3627624511719	1393.981567382812	1336.130981445312	162.0102081298828	1403.399291992188	1373.446533203125	171.4604644775391	1287.195434570312	1451.70361328125	152.1181640625	1084.8984375	1470.533935546875	224.1045684814453	1067.86865234375	1425.637817382812	68.95644378662109	867.2885131835938	1413.142333984375	90.77695465087891	856.0367431640625	1481.457397460938	131.0096893310547	982.0698852539062	1478.467895507812	80.89940643310547	768.3356323242188	1480.61181640625	35.91755294799805	771.831787109375	1432.672485351562	211.2260589599609	1413.092895507812	1064.738525390625	222.1675415039062	1354.440063476562	998.16259765625	207.6523895263672	1087.8564453125	944.569091796875	235.7838592529297	1077.0537109375	1034.327758789062	81.74370574951172	874.169189453125	995.1625366210938	123.9288558959961	866.2921142578125	922.67333984375	175.8249206542969	1023.13427734375	931.5947875976562	38.44655609130859	763.0610961914062	978.2011108398438	87.26180267333984	757.1643676757812	926.8519897460938	253.9908294677734	1597.90283203125	1165.4111328125	60.36576843261719	1634.468627929688	1243.916381835938	81.32881927490234	1635.020263671875	1154.27783203125	219.1373291015625	1586.507934570312	1304.585083007812	207.0775299072266	951.911865234375	1381.22705078125	214.4530029296875	961.889404296875	1008.088500976562	88.24788665771484	964.3602294921875	1065.56494140625	74.12153625488281	960.9483032226562	1315.8310546875	134.664794921875	484.8781127929688	1341.298461914062	143.0764770507812	627.2978515625	1366.961181640625	242.3313598632812	47.58354568481445	1335.539428710938	191.6566009521484	260.9758911132812	1347.915771484375	45.22206115722656	38.83227157592773	1248.731811523438	120.3236923217773	30.40730285644531	1221.437133789062	117.4314117431641	46.13813018798828	1330.571411132812	296.6061401367188	38.86727905273438	1284.607421875	199.5794067382812	486.2141723632812	1043.313232421875	161.6872100830078	748.5750732421875	1005.892578125	264.4987487792969	42.62333679199219	1078.13232421875	197.4261474609375	364.8674621582031	1052.84521484375	63.13722229003906	45.16320419311523	1105.279541015625	114.5154342651367	43.41884231567383	1151.337524414062	163.0699157714844	34.24401092529297	1044.184814453125	308.8696899414062	38.32370376586914	1135.898681640625	57.84167861938477	691.1963500976562	997.6349487304688	51.01981353759766	684.1421508789062	1422.319702148438	nan	nan	nan	
2	0.01	304.3036804199219	1010.773986816406	1122.083251953125	284.7107849121094	1000.731262207031	1294.982177734375	277.0209045410156	1073.547729492188	1210.89794921875	34.26189041137695	1257.415893554688	1189.451782226562	294.1421203613281	1184.939697265625	1216.624633789062	260.7761535644531	1431.044799804688	1231.267333984375	98.50472259521484	1357.135375976562	1201.637084960938	314.0438842773438	1292.65087890625	1158.409057617188	260.30322265625	1393.976806640625	1336.1572265625	161.96044921875	1403.32373046875	1373.508544921875	171.4829711914062	1287.135375976562	1451.71337890625	152.21728515625	1084.808227539062	1470.591430664062	224.1259002685547	1067.8427734375	1425.5869140625	68.80847930908203	867.3589477539062	1413.229370117188	90.68618011474609	856.0757446289062	1481.490600585938	131.0133972167969	982.0440063476562	1478.543090820312	80.58445739746094	768.2820434570312	1480.653930664062	35.49898147583008	772.0381469726562	1432.86865234375	211.0602722167969	1413.066040039062	1064.765502929688	221.9631958007812	1354.382202148438	998.2100219726562	207.6091613769531	1087.724975585938	944.8638305664062	235.7521667480469	1077.03857421875	1034.631591796875	82.31864166259766	873.7371826171875	995.6283569335938	124.3768539428711	865.9482421875	923.0392456054688	175.9172058105469	1022.955322265625	931.9168090820312	39.70317459106445	762.2210083007812	978.8011474609375	88.30792999267578	756.6130981445312	927.3138427734375	253.9330139160156	1597.8916015625	1165.447509765625	60.18295288085938	1634.4658203125	1244.099487304688	81.24908447265625	1635.016235351562	1154.315185546875	219.0272064208984	1586.532592773438	1304.707397460938	206.7785491943359	951.9185180664062	1381.391357421875	214.5565490722656	961.868408203125	1008.240417480469	88.18202972412109	964.350830078125	1065.652709960938	73.84723663330078	961.0350952148438	1316.000122070312	134.9508361816406	484.9867248535156	1341.40234375	143.427734375	627.5078735351562	1367.1953125	242.3305358886719	47.58502578735352	1335.520629882812	191.8330078125	261.0184020996094	1347.953491210938	45.21126937866211	38.82389068603516	1248.708984375	120.3270034790039	30.40493774414062	1221.43359375	117.4186553955078	46.15766525268555	1330.574340820312	296.6109924316406	38.84110260009766	1284.5966796875	199.6452026367188	486.2068786621094	1043.389892578125	161.7507934570312	748.5745849609375	1006.001159667969	264.4867248535156	42.62604522705078	1078.156127929688	197.4258728027344	364.8258361816406	1052.907470703125	63.12753295898438	45.1755485534668	1105.298706054688	114.5112533569336	43.415283203125	1151.33984375	163.048583984375	34.2675895690918	1044.211669921875	308.8812561035156	38.32466506958008	1135.913818359375	59.33742523193359	690.4080810546875	998.2454223632812	50.55061721801758	684.2887573242188	1422.46875	nan	nan	nan	
3	0.02	304.1894226074219	1010.788513183594	1122.3525390625	284.5445861816406	1000.807922363281	1295.214599609375	276.8685913085938	1073.5283203125	1211.057861328125	34.14499664306641	1257.405029296875	1189.535034179688	294.1483154296875	1184.961181640625	1216.703002929688	260.599365234375	1431.06005859375	1231.32275390625	98.33928680419922	1357.14111328125	1201.768188476562	313.970947265625	1292.722045898438	1158.4501953125	260.2013854980469	1393.990966796875	1336.1982421875	161.8735961914062	1403.252197265625	1373.5888671875	171.4860992431641	1287.0732421875	1451.740844726562	152.3359832763672	1084.7080078125	1470.654907226562	224.172607421875	1067.82275390625	1425.534423828125	68.65128326416016	867.4591064453125	1413.304809570312	90.56423187255859	856.1460571289062	1481.505737304688	131.0213165283203	982.0202026367188	1478.614868164062	80.21103668212891	768.2390747070312	1480.667358398438	34.99713897705078	772.3136596679688	1433.044555664062	210.8523712158203	1413.037353515625	1064.807495117188	221.7133026123047	1354.317016601562	998.2783203125	207.5633850097656	1087.573486328125	945.2272338867188	235.7167816162109	1077.0234375	1035.005126953125	83.04555511474609	873.1949462890625	996.1757202148438	124.9547576904297	865.5416870117188	923.470703125	176.0321960449219	1022.747436523438	932.31494140625	41.3070068359375	761.16845703125	979.5123901367188	89.62490081787109	755.9526977539062	927.8475952148438	253.8438415527344	1597.885986328125	1165.509155273438	59.95934677124023	1634.471801757812	1244.3193359375	81.13700103759766	1635.020874023438	1154.369262695312	218.8761596679688	1586.562866210938	1304.857788085938	206.4244689941406	951.9402465820312	1381.60400390625	214.7035980224609	961.846435546875	1008.435424804688	88.10149383544922	964.3462524414062	1065.76904296875	73.53034210205078	961.14013671875	1316.205322265625	135.3009643554688	485.0989990234375	1341.532348632812	143.8340911865234	627.7373657226562	1367.471557617188	242.3325805664062	47.5837287902832	1335.504028320312	192.0547943115234	261.0665283203125	1348.00390625	45.20523071289062	38.81908416748047	1248.688110351562	120.33447265625	30.40851402282715	1221.425537109375	117.4077606201172	46.17756652832031	1330.576904296875	296.617431640625	38.80606842041016	1284.584716796875	199.7027893066406	486.2035522460938	1043.483276367188	161.8243103027344	748.5769653320312	1006.138061523438	264.4815063476562	42.63018417358398	1078.179443359375	197.4123382568359	364.7699279785156	1052.991088867188	63.11545181274414	45.18563842773438	1105.318603515625	114.505126953125	43.41098403930664	1151.34326171875	163.0245819091797	34.29263687133789	1044.244995117188	308.8943481445312	38.32772064208984	1135.930786132812	61.23723602294922	689.4651489257812	998.9351196289062	49.98641204833984	684.4871826171875	1422.583984375	nan	nan	nan	
4	0.03	304.0783386230469	1010.794799804688	1122.668701171875	284.3548889160156	1000.884948730469	1295.491577148438	276.7039184570312	1073.515258789062	1211.260131835938	34.00074768066406	1257.411743164062	1189.623657226562	294.1503295898438	1184.997680664062	1216.818359375	260.3835754394531	1431.09375	1231.398193359375	98.13873291015625	1357.156127929688	1201.912963867188	313.8746948242188	1292.81591796875	1158.517456054688	260.0487670898438	1394.032104492188	1336.256713867188	161.741943359375	1403.19677734375	1373.685302734375	171.4586791992188	1287.017700195312	1451.791870117188	152.4665679931641	1084.60791015625	1470.717407226562	224.2506103515625	1067.814208984375	1425.486450195312	68.50277709960938	867.5895385742188	1413.350463867188	90.41436767578125	856.2509765625	1481.487426757812	131.0336761474609	982.0045166015625	1478.670288085938	79.80484771728516	768.2164916992188	1480.62646484375	34.45362091064453	772.6464233398438	1433.151611328125	210.610107421875	1413.0107421875	1064.867065429688	221.4320220947266	1354.251098632812	998.3690185546875	207.5217895507812	1087.415405273438	945.640380859375	235.6830444335938	1077.011596679688	1035.427124023438	83.90220642089844	872.5648193359375	996.7595825195312	125.6456680297852	865.1030883789062	923.9349975585938	176.1656494140625	1022.528015136719	932.7674560546875	43.20551681518555	759.9302978515625	980.289306640625	91.15510559082031	755.2284545898438	928.40576171875	253.7165374755859	1597.89013671875	1165.6015625	59.70817184448242	1634.488891601562	1244.560546875	80.98960113525391	1635.038330078125	1154.443359375	218.6834869384766	1586.596069335938	1305.027587890625	206.0478820800781	951.9818725585938	1381.858276367188	214.8929138183594	961.8263549804688	1008.667297363281	88.01808166503906	964.3463134765625	1065.908569335938	73.20745086669922	961.2503662109375	1316.431396484375	135.698486328125	485.2003173828125	1341.685791015625	144.2467956542969	627.9494018554688	1367.75341796875	242.3386840820312	47.57745361328125	1335.49365234375	192.31396484375	261.1150817871094	1348.064819335938	45.20608139038086	38.82100296020508	1248.672729492188	120.3468170166016	30.41863059997559	1221.414306640625	117.4005126953125	46.1951789855957	1330.578857421875	296.6251831054688	38.7637939453125	1284.572631835938	199.7370300292969	486.2063903808594	1043.590209960938	161.9000701904297	748.5831909179688	1006.298645019531	264.4837036132812	42.63518142700195	1078.200439453125	197.3781585693359	364.7029724121094	1053.095581054688	63.10126113891602	45.19003295898438	1105.336669921875	114.4968872070312	43.40585327148438	1151.347534179688	162.9987945556641	34.3164176940918	1044.2841796875	308.9076843261719	38.33353424072266	1135.947998046875	63.45529174804688	688.4387817382812	999.6390380859375	49.3708381652832	684.7283325195312	1422.619384765625	nan	nan	nan	
